# xmcd
#
# Track frame offsets: 
#        150
#        15557
#        30487
#        45475
#        57912
#        70825
#        84250
#        99200
#        111087
#        124625
#
# Disc length: 1863 seconds
#
# Revision: 0
# Processed by: cddbd v1.5.2PL0 Copyright (c) Steve Scherf et al.
# Submitted via: ExactAudioCopy v0.95b4
#
DISCID=6d07450a
DTITLE=Jimmie Rodgers - Hall of Fame, Inducted 1961
DYEAR=2000
DGENRE=Country
TTITLE0=Blue Yodel # 1 (T For Texas)
TTITLE1=Away Out On The Mountain
TTITLE2=In The Jailhouse Now
TTITLE3=Waiting For A Train
TTITLE4=Frankie And Johnnie
TTITLE5=Blue Yodel # 8 (Mule Skinner Blues)
TTITLE6=Jimmie Rodgers' Last Blue Yodel (The Women Make A Fool Out Of 
TTITLE6=Me)
TTITLE7=Hobo Bill's Last Ride
TTITLE8=T.B. Blues
TTITLE9=Mother, Queen Of My Heart
EXTD=
EXTT0=
EXTT1=
EXTT2=
EXTT3=
EXTT4=
EXTT5=
EXTT6=
EXTT7=
EXTT8=
EXTT9=
PLAYORDER=
